<?xml version="1.0" encoding="utf-8"?>
<!-- Generator: Adobe Illustrator 24.1.1, SVG Export Plug-In . SVG Version: 6.00 Build 0)  -->
<svg version="1.1" xmlns="http://www.w3.org/2000/svg" xmlns:xlink="http://www.w3.org/1999/xlink" x="0px" y="0px"
	 viewBox="0 0 210 210" style="enable-background:new 0 0 210 210;" xml:space="preserve">
<style type="text/css">
	.st0{stroke:#FFFFFF;stroke-miterlimit:10;}
	.st1{fill:#3ED9E5;}
	.st2{fill:#FFFFFF;}
	.st3{fill:#FFC0CE;}
	.st4{fill:none;stroke:#D8A7B5;stroke-miterlimit:10;}
	.st5{fill:#60BFEF;}
</style>
<g id="Layer_1">
	<path class="st0" d="M-112.32,346.44"/>
	<g>
		<circle class="st1" cx="104.22" cy="209.42" r="105.78"/>
	</g>
	<circle class="st2" cx="68.01" cy="168.95" r="19.88"/>
	<circle class="st2" cx="137.58" cy="168.95" r="19.88"/>
	<ellipse class="st3" cx="106.35" cy="209.42" rx="76.68" ry="7.81"/>
	<line class="st4" x1="44.58" y1="209.42" x2="165.27" y2="209.42"/>
	<circle class="st0" cx="72.98" cy="175.34" r="7.81"/>
	<circle class="st0" cx="131.2" cy="175.34" r="7.81"/>
</g>
<g id="Layer_2">
	<path class="st5" d="M93.45,97.22c-0.26-3.68-0.09-7.49,1.36-10.89c2.41-5.64,7.95-9.32,13.61-11.69
		c8.68,5.02,13.15,15.32,14,25.31c0.37,4.33,0.14,8.84-1.73,12.76c-1.88,3.94-5.23,6.87-8.75,9.33c-1.53,1.07-3.12,2.61-5.02,2.08
		c-1.57-0.44-3.54-3.04-4.59-4.23C96.89,113.67,94.04,105.4,93.45,97.22z"/>
	<path class="st5" d="M93.45,97.22c-0.26-3.68-0.09-7.49,1.36-10.89c2.41-5.64,7.95-9.32,13.61-11.69
		c8.68,5.02,13.15,15.32,14,25.31c0.37,4.33,0.14,8.84-1.73,12.76c-1.88,3.94-5.23,6.87-8.75,9.33c-1.53,1.07-3.12,2.61-5.02,2.08
		c-1.57-0.44-3.54-3.04-4.59-4.23C96.89,113.67,94.04,105.4,93.45,97.22z"/>
</g>
</svg>
